<?xml version="1.0" encoding="UTF-8"?>
<svg id="SVGDoc" width="17" height="17" xmlns="http://www.w3.org/2000/svg" version="1.1" xmlns:xlink="http://www.w3.org/1999/xlink" xmlns:avocode="https://avocode.com/" viewBox="0 0 17 17"><defs></defs><desc>Generated with Avocode.</desc><g><g><title>Ellipse 1</title><path d="M15.02356,4.06756v-1.01907c0,-0.59154 -0.48027,-1.07177 -1.07204,-1.07177h-1.01862c-0.59246,0 -1.07239,0.48023 -1.07239,1.07177v1.01907c0,0.59178 0.47993,1.072 1.07239,1.072h1.01862c0.59177,0 1.0718,-0.48023 1.0718,-1.072zM15.02331,13.95074v-5.35955c0,-0.59249 -0.55077,-1.07933 -1.14288,-1.07933h-0.60596c-0.04229,0 -0.08181,0.00378 -0.11921,0.01063c-0.22573,0.04254 -0.37094,0.20655 -0.38612,0.41618c-0.00246,0.03545 -0.00086,0.07161 0.00439,0.10824c0.00303,0.02481 0.00244,0.05128 0.00557,0.07681c0.01757,0.15291 0.03302,0.30912 0.03302,0.46628c-0.00059,2.36781 -1.91618,4.28778 -4.28398,4.28778c-0.01978,0 -0.03524,-0.00184 -0.05272,-0.00307c0.00942,-0.00042 0.01794,-0.00077 0.02461,-0.00095c-2.33101,-0.0423 -4.15119,-1.94265 -4.15119,-4.28376c0,-0.00024 0,-0.00095 0,-0.00095c0,-0.1574 -0.04457,-0.31267 -0.02684,-0.46581c0.00311,-0.02458 -0.0564,-0.05128 -0.05285,-0.07657c0.00515,-0.0364 0.00641,-0.07279 0.00372,-0.108c-0.01545,-0.20963 -0.16058,-0.37341 -0.38639,-0.41618c-0.03733,-0.00685 -0.07717,-0.01063 -0.11921,-0.01063c-0.33497,0 -0.60596,0 -0.60596,0c-0.59246,0 -1.1845,0.48684 -1.1845,1.07862v5.36026c0,0.59154 0.59204,1.07271 1.1845,1.07271h10.71915c0.59212,0 1.14288,-0.48117 1.14288,-1.07271zM14.85649,0.00004c1.18357,0 2.14352,0.95998 2.14325,2.1433v12.71279c0,1.18379 -0.95993,2.14377 -2.14325,2.14377h-12.71282c-1.18372,0 -2.14367,-0.95998 -2.14367,-2.14377v-12.71279c0,-1.18332 0.95995,-2.1433 2.14367,-2.1433zM5.93473,8.5678c0,1.3946 1.15593,2.52521 2.58186,2.52521c1.42591,0 2.58184,-1.13061 2.58184,-2.52521c0,-1.3946 -1.15593,-2.52521 -2.58184,-2.52521c-1.42593,0 -2.58186,1.13061 -2.58186,2.52521z" fill="#ffffff" fill-opacity="1"></path></g></g></svg>