<?xml version="1.0" encoding="UTF-8"?>
<svg id="SVGDoc" width="18" height="15" xmlns="http://www.w3.org/2000/svg" version="1.1" xmlns:xlink="http://www.w3.org/1999/xlink" xmlns:avocode="https://avocode.com/" viewBox="0 0 18 15"><defs></defs><desc>Generated with Avocode.</desc><g><g><title>Forma 1</title><path d="M17.50356,0.27718c-0.71413,0.43367 -1.50499,0.74894 -2.34636,0.91933c-0.67352,-0.73736 -1.63246,-1.19655 -2.69478,-1.19655c-2.03979,0 -3.6931,1.69639 -3.6931,3.78699c0,0.2966 0.03296,0.5861 0.0956,0.86285c-3.06862,-0.15763 -5.78964,-1.66591 -7.61095,-3.95739c-0.31799,0.55822 -0.49934,1.20884 -0.49934,1.90366c0,1.31472 0.65254,2.47393 1.64232,3.15244c-0.60526,-0.02103 -1.17426,-0.19167 -1.67246,-0.47574v0.04727c0,1.83536 1.27312,3.36537 2.9616,3.71467c-0.30922,0.08555 -0.63545,0.13282 -0.97267,0.13282c-0.23849,0 -0.46907,-0.02458 -0.69544,-0.06877c0.47022,1.50449 1.83344,2.59989 3.44873,2.63109c-1.2632,1.01552 -2.85614,1.62053 -4.58559,1.62053c-0.29831,0 -0.59212,-0.0182 -0.88112,-0.05199c1.6346,1.07389 3.57462,1.70159 5.66065,1.70159c6.79201,0 10.506,-5.77147 10.506,-10.77676l-0.01205,-0.49063c0.7238,-0.53175 1.35111,-1.19891 1.84542,-1.95778c-0.66238,0.30061 -1.37308,0.50528 -2.12015,0.5965c0.76248,-0.46865 1.34682,-1.21168 1.62371,-2.09414z" fill="#ffffff" fill-opacity="1"></path></g></g></svg>