<?xml version="1.0" encoding="UTF-8"?>
<svg id="SVGDoc" width="10" height="18" xmlns="http://www.w3.org/2000/svg" version="1.1" xmlns:xlink="http://www.w3.org/1999/xlink" xmlns:avocode="https://avocode.com/" viewBox="0 0 10 18"><defs></defs><desc>Generated with Avocode.</desc><g><g><title>Forma 1</title><path d="M9.62342,0.00382l-2.3987,-0.00378c-2.69459,0 -4.43583,1.73846 -4.43583,4.42981v2.04262v0h-2.41175c-0.20842,0 -0.37716,0.16425 -0.37716,0.36726v2.95912c0,0.20277 0.16899,0.36702 0.37716,0.36702h2.41159v0v7.46716c0,0.20277 0.16874,0.36702 0.37714,0.36702h3.14638c0.2084,0 0.37714,-0.16449 0.37714,-0.36702v-7.46716v0h2.81969c0.20842,0 0.37714,-0.16425 0.37714,-0.36702l0.00122,-2.95912c0,-0.09761 -0.03992,-0.19096 -0.11045,-0.25973c-0.07086,-0.06901 -0.16689,-0.10753 -0.26693,-0.10753h-2.82043v0v-1.73161c0,-0.83213 0.20374,-1.25445 1.3175,-1.25445l1.61589,-0.00047c0.20824,0 0.37697,-0.16472 0.37697,-0.36726v-2.74784c0,-0.20254 -0.16857,-0.36679 -0.37657,-0.36702z" fill="#ffffff" fill-opacity="1"></path></g></g></svg>